<?xml version="1.0" standalone="no"?><svg xmlns="http://www.w3.org/2000/svg" viewBox="0 0 1440 320"><path fill="#251d3c" fill-opacity="1" d="M0,160L24,165.3C48,171,96,181,144,197.3C192,213,240,235,288,250.7C336,267,384,277,432,240C480,203,528,117,576,106.7C624,96,672,160,720,170.7C768,181,816,139,864,112C912,85,960,75,1008,90.7C1056,107,1104,149,1152,186.7C1200,224,1248,256,1296,245.3C1344,235,1392,181,1416,154.7L1440,128L1440,320L1416,320C1392,320,1344,320,1296,320C1248,320,1200,320,1152,320C1104,320,1056,320,1008,320C960,320,912,320,864,320C816,320,768,320,720,320C672,320,624,320,576,320C528,320,480,320,432,320C384,320,336,320,288,320C240,320,192,320,144,320C96,320,48,320,24,320L0,320Z"></path></svg>